<?xml version="1.0" encoding="UTF-8"?>
<svg id="Capa_2" data-name="Capa 2" xmlns="http://www.w3.org/2000/svg" viewBox="0 0 1008 566.84">
  <defs>
    <style>
      .cls-1 {
        fill: #f87c56;
      }

      .cls-2 {
        fill: #ffa400;
      }

      .cls-3 {
        fill: #2f2a95;
      }

      .cls-4 {
        fill: #006269;
      }
    </style>
  </defs>
  <g id="Capa_1-2" data-name="Capa 1">
    <g>
      <path class="cls-4" d="M840.25,299.98c54.74,0,99.11,44.37,99.11,99.11s-44.37,99.11-99.11,99.11-99.11-44.37-99.11-99.11,44.38-99.11,99.11-99.11M840.25,231.34c-92.5,0-167.75,75.25-167.75,167.75s75.25,167.75,167.75,167.75,167.75-75.25,167.75-167.75-75.25-167.75-167.75-167.75"/>
      <path class="cls-2" d="M580.38,327.84c30.32,0,54.9,24.58,54.9,54.9s-24.58,54.9-54.9,54.9-54.9-24.58-54.9-54.9,24.58-54.9,54.9-54.9M580.38,289.82c-51.23,0-92.92,41.68-92.92,92.92s41.68,92.91,92.92,92.91,92.91-41.68,92.91-92.91-41.68-92.92-92.91-92.92"/>
      <path class="cls-2" d="M55.85,478c18.22,0,33,14.77,33,33s-14.77,33-33,33-33-14.77-33-33,14.77-33,33-33M55.85,455.14c-30.8,0-55.85,25.05-55.85,55.85s25.05,55.85,55.85,55.85,55.85-25.05,55.85-55.85-25.05-55.85-55.85-55.85"/>
      <path class="cls-1" d="M178.61,254.5c13.72,13.72,13.72,35.98,0,49.7-43.95,43.95-43.95,115.47,0,159.42,43.95,43.95,115.47,43.95,159.42,0,13.72-13.72,35.98-13.72,49.7,0,13.73,13.73,13.72,35.98,0,49.7-71.36,71.36-187.47,71.36-258.82,0-71.36-71.36-71.36-187.46,0-258.82,13.72-13.72,35.98-13.73,49.7,0"/>
      <path class="cls-3" d="M784.74,161.78c9.59-10.1,25.55-10.52,35.66-.93,32.35,30.71,83.65,29.38,114.36-2.97,30.71-32.35,29.38-83.65-2.97-114.37-10.1-9.59-10.52-25.55-.93-35.66,9.59-10.1,25.55-10.52,35.66-.93,52.52,49.86,54.69,133.15,4.83,185.68-49.86,52.52-133.15,54.69-185.68,4.83-10.1-9.59-10.52-25.55-.93-35.66"/>
      <path class="cls-3" d="M311.17,378.87c9.5-16.96,30.96-23.01,47.92-13.51l241.01,135.01c16.96,9.5,23.01,30.96,13.51,47.92-9.5,16.96-30.96,23.01-47.92,13.51l-241.01-135.01c-16.96-9.5-23.01-30.95-13.51-47.92"/>
    </g>
  </g>
</svg>