<?xml version="1.0" encoding="UTF-8"?>
<svg id="Capa_2" data-name="Capa 2" xmlns="http://www.w3.org/2000/svg" viewBox="0 0 373.8 130.07">
  <defs>
    <style>
      .cls-1 {
        fill: #1a1a1a;
      }
    </style>
  </defs>
  <g id="Capa_1-2" data-name="Capa 1">
    <g>
      <path class="cls-1" d="M40.81,103.16c-2.39,0-4.34,1.94-4.34,4.34,0,7.67-6.24,13.9-13.9,13.9s-13.9-6.24-13.9-13.9c0-2.39-1.94-4.34-4.33-4.34s-4.33,1.94-4.33,4.34c0,12.45,10.13,22.57,22.57,22.57s22.57-10.13,22.57-22.57c0-2.39-1.94-4.34-4.33-4.34"/>
      <path class="cls-1" d="M96.35,94.41v-29.2c0-12.42-10.1-22.52-22.52-22.52s-22.52,10.1-22.52,22.52v10.08c0,12.42,10.1,22.52,22.52,22.52,5.22,0,10.02-1.8,13.85-4.8v1.4c0,2.39,1.94,4.33,4.33,4.33s4.34-1.94,4.34-4.33M87.68,75.29c0,7.65-6.2,13.85-13.85,13.85s-13.85-6.2-13.85-13.85v-10.08c0-7.65,6.2-13.85,13.85-13.85s13.85,6.2,13.85,13.85v10.08Z"/>
      <path class="cls-1" d="M106.89,42.69c2.39,0,4.33-1.94,4.33-4.33V4.33c0-2.39-1.94-4.33-4.33-4.33s-4.34,1.94-4.34,4.33v34.02c0,2.39,1.94,4.33,4.34,4.33"/>
      <path class="cls-1" d="M102.56,65.21v10.08c0,12.42,10.1,22.52,22.52,22.52s22.52-10.1,22.52-22.52v-10.08c0-12.42-10.1-22.52-22.52-22.52s-22.52,10.1-22.52,22.52M111.23,65.21c0-7.65,6.2-13.85,13.85-13.85s13.85,6.2,13.85,13.85v10.08c0,7.65-6.2,13.85-13.85,13.85s-13.85-6.2-13.85-13.85v-10.08Z"/>
      <path class="cls-1" d="M198.85,75.29v-10.08c0-12.42-10.1-22.52-22.52-22.52s-22.52,10.1-22.52,22.52v10.08c0,12.42,10.1,22.52,22.52,22.52s22.52-10.1,22.52-22.52M190.18,75.29c0,7.65-6.2,13.85-13.85,13.85s-13.85-6.2-13.85-13.85v-10.08c0-7.65,6.2-13.85,13.85-13.85s13.85,6.2,13.85,13.85v10.08Z"/>
      <path class="cls-1" d="M40.81,42.03c-2.39,0-4.33,1.94-4.33,4.33v1.13c-3.83-3-8.63-4.8-13.85-4.8C10.21,42.69.11,52.79.11,65.21v10.08c0,12.42,10.1,22.52,22.52,22.52s22.52-10.1,22.52-22.52v-10.08c0-.3-.03-.6-.05-.9.02-.15.05-.3.05-.45v-17.5c0-2.39-1.94-4.33-4.33-4.33M36.48,75.29c0,7.65-6.2,13.85-13.85,13.85s-13.85-6.2-13.85-13.85v-10.08c0-7.65,6.2-13.85,13.85-13.85s13.85,6.2,13.85,13.85v10.08Z"/>
      <path class="cls-1" d="M227.01,65.43l-5.52-.84c-1.19-.17-2.03-.43-2.52-.76-.49-.33-.73-.78-.73-1.34,0-.6.33-1.08,1-1.44.67-.37,1.54-.55,2.63-.55,1.36,0,2.73.2,4.1.6,1.37.4,2.8,1.04,4.31,1.92l4.04-5.46c-1.72-1.12-3.57-1.96-5.57-2.52-2-.56-4.01-.84-6.04-.84-2.49,0-4.62.36-6.41,1.08-1.79.72-3.16,1.75-4.12,3.1-.96,1.35-1.44,2.97-1.44,4.86,0,2.28.73,4.12,2.18,5.54,1.45,1.42,3.56,2.34,6.33,2.76l5.52.84c.98.14,1.7.38,2.15.71.45.33.68.76.68,1.29,0,.67-.41,1.2-1.23,1.6-.82.4-1.94.61-3.34.61s-2.82-.24-4.26-.71c-1.44-.47-3.03-1.23-4.78-2.29l-4.04,5.73c1.65,1.19,3.59,2.09,5.83,2.71,2.24.61,4.68.92,7.3.92,2.42,0,4.56-.41,6.43-1.23,1.87-.82,3.35-1.93,4.44-3.34s1.63-3.01,1.63-4.83c0-2.17-.74-3.97-2.23-5.38-1.49-1.42-3.6-2.32-6.33-2.71"/>
      <path class="cls-1" d="M251.49,45.63l-8.51,1.84v7.15h-5.62v7.09h5.62v12.24c0,2.91.85,5.11,2.55,6.59,1.7,1.49,4.21,2.23,7.54,2.23.81,0,1.8-.08,2.99-.24,1.19-.16,2.17-.36,2.94-.6v-6.88c-.7.21-1.34.36-1.92.45-.58.09-1.22.13-1.92.13-1.37,0-2.32-.25-2.86-.76-.54-.51-.81-1.37-.81-2.6v-10.56h7.77v-7.09h-7.77v-8.98Z"/>
      <path class="cls-1" d="M281.89,73.42c-.56.7-1.26,1.24-2.1,1.63-.84.39-1.8.58-2.89.58-1.51,0-2.72-.46-3.65-1.39-.93-.93-1.39-2.14-1.39-3.65v-15.97h-8.51v17.12c0,2.17.47,4.11,1.42,5.8.95,1.7,2.25,3.02,3.91,3.97,1.66.95,3.58,1.42,5.75,1.42,2.87,0,5.36-.81,7.46-2.42v1.89h8.51v-27.79h-8.51v18.8Z"/>
      <path class="cls-1" d="M316.36,56.08c-1.05-.59-2.17-1.05-3.36-1.36-1.19-.32-2.43-.47-3.73-.47-2.7,0-5.14.63-7.33,1.89-2.19,1.26-3.92,2.97-5.2,5.12-1.28,2.15-1.92,4.56-1.92,7.22s.63,5.07,1.89,7.22c1.26,2.15,2.97,3.87,5.12,5.15,2.15,1.28,4.54,1.92,7.17,1.92,2.77,0,5.25-.8,7.46-2.42v2.05h8.4v-38.08l-8.51,1.31v10.45ZM316.36,73.31c-.77.74-1.65,1.29-2.63,1.66-.98.37-2.07.55-3.26.55-1.37,0-2.6-.31-3.7-.92-1.1-.61-1.98-1.45-2.63-2.52-.65-1.07-.97-2.27-.97-3.6s.32-2.53.97-3.6c.65-1.07,1.52-1.91,2.63-2.52,1.1-.61,2.34-.92,3.7-.92,1.16,0,2.24.18,3.26.55,1.01.37,1.89.9,2.63,1.6v9.72Z"/>
      <rect class="cls-1" x="330.82" y="54.61" width="8.51" height="27.79"/>
      <path class="cls-1" d="M335.08,42.69c-1.3,0-2.4.46-3.31,1.37s-1.37,2.01-1.37,3.31.46,2.4,1.37,3.31c.91.91,2.01,1.37,3.31,1.37s2.4-.45,3.31-1.37c.91-.91,1.37-2.01,1.37-3.31s-.46-2.4-1.37-3.31c-.91-.91-2.02-1.37-3.31-1.37"/>
      <path class="cls-1" d="M371.81,61.21c-1.33-2.19-3.13-3.92-5.41-5.2-2.28-1.28-4.83-1.92-7.67-1.92s-5.39.64-7.67,1.92c-2.28,1.28-4.08,3.01-5.41,5.2-1.33,2.19-2,4.63-2,7.33s.67,5.13,2,7.3c1.33,2.17,3.13,3.9,5.41,5.17,2.28,1.28,4.83,1.92,7.67,1.92s5.39-.64,7.67-1.92c2.28-1.28,4.08-3,5.41-5.17,1.33-2.17,2-4.61,2-7.3s-.67-5.14-2-7.33M364.61,72.08c-.6,1.07-1.4,1.92-2.42,2.55-1.02.63-2.17.95-3.47.95s-2.41-.32-3.44-.95c-1.03-.63-1.85-1.48-2.44-2.55-.6-1.07-.89-2.25-.89-3.55s.3-2.53.89-3.6c.6-1.07,1.41-1.92,2.44-2.55,1.03-.63,2.18-.95,3.44-.95s2.41.32,3.44.95c1.03.63,1.85,1.48,2.44,2.55.59,1.07.89,2.27.89,3.6s-.3,2.48-.89,3.55"/>
      <path class="cls-1" d="M209.94,93.47c0,2.39,1.94,4.34,4.33,4.34h155.2c2.39,0,4.33-1.94,4.33-4.34s-1.94-4.33-4.33-4.33h-155.2c-2.39,0-4.33,1.94-4.33,4.33"/>
    </g>
  </g>
</svg>